<?xml version="1.0" encoding="UTF-8"?><svg id="Layer_1" xmlns="http://www.w3.org/2000/svg" viewBox="0 0 100 100"><defs><style>.cls-1{fill:#45bbbb;}.cls-1,.cls-2{stroke-width:0px;}.cls-2{fill:#fff;}</style></defs><path class="cls-1" d="m37.82,81.44l3.91-7.51c-11.84-5.1-18.57-18.18-15.31-31.1,1.39-5.51,4.41-10.18,8.41-13.64l4.02,6.74c-2.35,2.35-4.11,5.34-4.98,8.78-2.37,9.39,2.66,18.9,11.42,22.38l4.57-8.79,5.95,9.85,4.16,6.88,2,3.31-24.14,3.1Z"/><path class="cls-1" d="m78.3,55.93c-1.53,6.08-5.03,11.15-9.68,14.68l-3.97-6.66c2.96-2.48,5.18-5.88,6.2-9.9,1.01-3.99.68-8.01-.7-11.57h4.11c1.45,0,2.46,0,3.96.04,1.14,4.25,1.24,8.84.08,13.41Z"/><path class="cls-1" d="m72.31,31.56c-1.77,2.5-5.25,2.23-5.72,5.12-2.45-2.75-5.72-4.82-9.56-5.79-.06-.01-.13-.03-.19-.04h-.01l-4.46,8.58-5.09-8.42-4.08-6.75-2.94-4.87,24.15-3.1-3.95,7.6c4.71,1.49,8.75,4.19,11.85,7.67Z"/><path class="cls-2" d="m80.95,35.62c-.21-.22-.38-.49-.47-.8.18.25.35.53.47.8Z"/><path class="cls-1" d="m85.8,38.42c0,.88-.71,1.59-1.59,1.59h-14.13c-.88,0-1.6-.71-1.6-1.59v-.06c0-.7.47-1.32,1.14-1.53l2.69-.81c.87-.26,1.46-1.06,1.46-1.96v-14.67c0-.42-.5-.61-.79-.31l-.45.48c-.85.9-2.28.86-3.07-.09-.32-.38-.48-.85-.48-1.31,0-.53.2-1.05.6-1.45l1.05-1.06c1.97-1.97,4.64-3.07,7.43-3.07.64,0,1.22.26,1.64.68.42.42.68,1,.68,1.64v19.3c0,.21.03.41.09.6,0,.01,0,.02.01.02.09.31.26.58.47.8.01.01.02.02.02.02.26.26.58.45.95.55l2.68.68c.71.18,1.2.82,1.2,1.55Z"/></svg>