<?xml version="1.0" encoding="UTF-8"?><svg id="Layer_1" xmlns="http://www.w3.org/2000/svg" viewBox="0 0 100 100"><defs><style>.cls-1{fill:#fff;stroke-width:0px;}</style></defs><path class="cls-1" d="m32.4,89.42l4.73-9.09c-14.33-6.17-22.48-22.01-18.53-37.64,1.68-6.67,5.33-12.32,10.17-16.51l4.87,8.16c-2.84,2.84-4.98,6.46-6.03,10.62-2.87,11.36,3.22,22.87,13.82,27.09l5.53-10.64,7.2,11.92,5.04,8.33,2.42,4.01-29.22,3.75Z"/><path class="cls-1" d="m59.8,19.77l4.78-9.19-29.22,3.75,3.56,5.89,4.94,8.16,6.16,10.2,5.39-10.38h.01c.07,0,.16.03.23.05,12.37,3.12,19.85,15.67,16.73,28.03-1.23,4.87-3.92,8.99-7.5,11.99l4.81,8.06c5.62-4.27,9.86-10.41,11.72-17.76,4.22-16.7-5.38-33.66-21.6-38.79Z"/></svg>